<?xml version="1.0" encoding="UTF-8"?>
<svg width="34px" height="34px" viewBox="0 0 34 34" version="1.1" xmlns="http://www.w3.org/2000/svg" xmlns:xlink="http://www.w3.org/1999/xlink">
    <title>icon_bubble_help</title>
    <g id="Push-for-Spring-Perfection" stroke="none" stroke-width="1" fill="none" fill-rule="evenodd">
        <g id="public-topics-/-help-closed" transform="translate(-1373.000000, -833.000000)">
            <g id="bubble" transform="translate(1360.000000, 820.000000)">
                <g id="icon_bubble_help" transform="translate(14.000000, 14.000000)">
                    <path d="M16,32 C18.2195089,32 20.3334643,31.5480716 22.254866,30.7312151 C22.5,30.5 31.5,32 31.5,32 C31.5,32 29,26.5 29.3787592,24.7787504 C31.0358916,22.2584028 32,19.2417912 32,16 C32,7.163444 24.836556,4.68958206e-13 16,4.68958206e-13 C7.163444,4.68958206e-13 0,7.163444 0,16 C0,24.836556 7.163444,32 16,32 Z" id="Combined-Shape" stroke="#FFFFFF" fill="#FFFFFF"></path>
                    <path d="M14.138009,20 L17.5180995,20 L17.5180995,19.2220039 C17.5180995,17.2986248 21,16.7799607 21,13.2357564 C21,10.4479371 18.5361991,9 16.2556561,9 C13.5271493,9 12,10.7937132 12,10.7937132 L13.9547511,13.3222004 C13.9547511,13.3222004 14.9117647,12.3929273 15.8891403,12.3929273 C16.6628959,12.3929273 17.3348416,12.9332024 17.3348416,13.6679764 C17.3348416,15.4833006 14.138009,16.0019646 14.138009,18.9194499 L14.138009,20 Z M14,24 L18,24 L18,21 L14,21 L14,24 Z" id="?" fill="#0680FC"></path>
                </g>
            </g>
        </g>
    </g>
</svg>