<svg width="20" height="20" viewBox="0 0 20 20" fill="none" xmlns="http://www.w3.org/2000/svg">
<path d="M10.0429 3.57844C10.31 3.36094 10.6212 3.13196 10.9732 2.89239L10.9827 2.88593L10.9827 2.88598C11.3783 2.62335 11.8247 2.40659 12.2847 2.24947L12.2869 2.24873C12.7633 2.0872 13.2396 2 13.7443 2C15.2675 2 16.5876 2.43659 17.5714 3.42015C18.5541 4.4018 19 5.72685 19 7.26346C19 8.96425 18.1258 10.5736 16.6664 12.0636L16.6603 12.0699L16.654 12.076L11.1072 17.5443C10.792 17.862 10.4012 18 10.0004 18C9.59692 18 9.20813 17.8609 8.89372 17.5452L3.3296 12.06L3.32336 12.0539L3.31934 12.0498C3.31933 12.0498 3.31538 12.0459 3.30497 12.0362L3.25051 11.9858C3.20595 11.9446 3.14329 11.886 3.07771 11.8191L3.07549 11.8168C2.91724 11.6542 2.72489 11.4153 2.50029 11.1203C2.26434 10.8103 2.03219 10.4839 1.82997 10.1462L1.82404 10.1363L1.81834 10.1263C1.60619 9.75271 1.42114 9.3323 1.25921 8.83732C1.08024 8.30706 1 7.77595 1 7.26346C1 5.72685 1.44587 4.4018 2.42858 3.42015L10.0429 3.57844ZM10.0429 3.57844C10.0287 3.58985 10.0144 3.60142 10 3.61315M10.0429 3.57844L10 3.61315M10 3.61315C9.98559 3.60143 9.97129 3.58986 9.9571 3.57845C9.68999 3.36094 9.3788 3.13196 9.02683 2.89239L9.02687 2.89234L9.0173 2.88598C8.62211 2.62359 8.17626 2.40664 7.71474 2.24928L7.71313 2.24874C7.23921 2.08805 6.76279 2 6.27213 2C4.73469 2 3.41389 2.43536 2.42893 3.4198L10 3.61315Z" fill="white" stroke="#0574E3" stroke-width="2"/>
</svg>
